<?xml version="1.0" standalone="no"?>
<!DOCTYPE svg PUBLIC "-//W3C//DTD SVG 20010904//EN"
 "http://www.w3.org/TR/2001/REC-SVG-20010904/DTD/svg10.dtd">
<svg version="1.0" xmlns="http://www.w3.org/2000/svg"
 width="300.000000pt" height="300.000000pt" viewBox="0 0 300.000000 300.000000"
 preserveAspectRatio="xMidYMid meet">
<metadata>
Created by potrace 1.10, written by Peter Selinger 2001-2011
</metadata>
<g transform="translate(0.000000,300.000000) scale(0.100000,-0.100000)"
fill="#ff282e" stroke="none">
<path d="M150 1505 l0 -525 1350 0 1350 0 0 525 0 525 -1350 0 -1350 0 0 -525z
m1468 288 l3 -83 39 0 40 0 0 -65 0 -65 -40 0 -40 0 0 -170 0 -170 -70 0 -70
0 0 170 0 170 -40 0 -40 0 0 65 0 65 40 0 40 0 0 85 0 86 68 -3 67 -3 3 -82z
m-918 -123 l0 -40 45 0 45 0 0 -105 0 -105 -165 0 c-158 0 -165 -1 -165 -20 0
-19 7 -20 120 -20 l120 0 0 -65 0 -65 -155 0 -155 0 0 39 c0 40 0 40 -42 43
l-43 3 -3 148 -3 147 46 0 45 0 0 40 0 40 155 0 155 0 0 -40z m1759 -10 l5
-45 5 45 6 45 118 3 117 3 0 -71 0 -70 -85 0 -85 0 0 -40 c0 -40 0 -40 -40
-40 l-39 0 -3 -122 -3 -123 -72 -3 -73 -3 0 236 0 236 73 -3 72 -3 4 -45z
m-1219 0 c0 -40 0 -40 40 -40 l40 0 0 -190 0 -190 -65 0 -65 0 0 165 0 165
-100 0 -100 0 0 -170 0 -171 -67 3 -68 3 -3 233 -2 232 195 0 195 0 0 -40z
m930 0 c0 -40 0 -40 40 -40 l40 0 0 -105 0 -105 -165 0 c-157 0 -165 -1 -165
-20 0 -18 8 -20 123 -22 l122 -3 3 -62 3 -63 -161 0 -160 0 0 40 c0 40 0 40
-40 40 l-40 0 0 150 0 150 40 0 c40 0 40 0 40 40 l0 40 160 0 160 0 0 -40z"/>
<path d="M460 1565 c0 -12 17 -15 90 -15 73 0 90 3 90 15 0 12 -17 15 -90 15
-73 0 -90 -3 -90 -15z"/>
<path d="M1920 1555 c0 -12 17 -15 95 -15 78 0 95 3 95 15 0 12 -17 15 -95 15
-78 0 -95 -3 -95 -15z"/>
</g>
</svg>
